<?xml version="1.0"?><svg xmlns="http://www.w3.org/2000/svg" xmlns:xlink="http://www.w3.org/1999/xlink" viewBox="61.54 329.17 1100.46 271.7" preserveAspectRatio="xMidYMid" width="100%" height="100%"><clipPath id="1076"><rect x="0.5" y="0.5" width="1274.59" height="719" /></clipPath><g id="drawing"><rect x="61.54" y="329.17" width="100%" height="100%" fill="rgb(255, 255, 255)" /><g id="page" clip-path="url(#1076)"><g id="Arrow"><line x1="842.01" y1="462.25" x2="362.08" y2="462.25" stroke="rgb(0, 0, 0)" stroke-width="1" shape-rendering="auto" /><path d="M849.76 462.25 L839.76 459.75 C841.45 461.16 841.45 463.34 839.76 464.75 Z" stroke="rgb(0, 0, 0)" stroke-width="0" fill-rule="evenodd" stroke-linejoin="miter" stroke-miterlimit="11.5587500919147" fill="rgb(0, 0, 0)" shape-rendering="geometricPrecision" /></g><g><text xml:space="preserve" text-anchor="middle" text-rendering="geometricPrecision"><tspan x="603.75" y="425.5" font-family="Arial" font-weight="bold" font-size="16" fill="rgb(0, 0, 0)">(a) </tspan><tspan font-family="Arial" font-size="16" fill="rgb(0, 0, 0)">HOCH</tspan><tspan font-family="Arial" dy="3.62" font-size="12" fill="rgb(0, 0, 0)">2</tspan><tspan font-family="Arial" dy="-3.62" font-size="16" fill="rgb(0, 0, 0)">CH</tspan><tspan font-family="Arial" dy="3.62" font-size="12" fill="rgb(0, 0, 0)">2</tspan><tspan font-family="Arial" dy="-3.62" font-size="16" fill="rgb(0, 0, 0)">OH, triethylorthoformate, p-TsOH, PhMe, 88%</tspan></text></g><g id="Rectangle"><path d="M71.54 333.17 L1152 333.17 C1155.31 333.17 1158 335.86 1158 339.17 L1158 590.87 C1158 594.18 1155.31 596.87 1152 596.87 L71.54 596.87 C68.23 596.87 65.54 594.18 65.54 590.87 L65.54 339.17 C65.54 335.86 68.23 333.17 71.54 333.17 " stroke="rgb(0, 0, 0)" stroke-width="4" fill-rule="evenodd" stroke-linejoin="bevel" fill="none" shape-rendering="geometricPrecision" /></g><g><text xml:space="preserve" text-anchor="middle" text-rendering="geometricPrecision"><tspan x="562.5" y="448.75" font-family="Arial" font-weight="bold" font-size="16" fill="rgb(0, 0, 0)">(b) </tspan><tspan font-family="Arial" font-size="16" fill="rgb(0, 0, 0)">Ca(OCl)</tspan><tspan font-family="Arial" dy="3.62" font-size="12" fill="rgb(0, 0, 0)">2</tspan><tspan font-family="Arial" dy="-3.62" font-size="16" fill="rgb(0, 0, 0)">, TEMPO, NaHCO</tspan><tspan font-family="Arial" dy="3.62" font-size="12" fill="rgb(0, 0, 0)">3</tspan><tspan font-family="Arial" dy="-3.62" font-size="16" fill="rgb(0, 0, 0)">, THF, DCM, 83%</tspan></text></g><g><text xml:space="preserve" text-anchor="start" text-rendering="geometricPrecision"><tspan x="386.75" y="488.25" font-family="Arial" font-weight="bold" font-size="16" fill="rgb(0, 0, 0)">(c) </tspan><tspan font-family="Arial" font-size="16" fill="rgb(0, 0, 0)">FeCl</tspan><tspan font-family="Arial" dy="3.62" font-size="12" fill="rgb(0, 0, 0)">3</tspan><tspan font-family="Arial" dy="-3.62" font-size="16" fill="rgb(0, 0, 0)">, LiCl, MeMgCl, THF</tspan></text></g><g><text xml:space="preserve" text-anchor="middle" text-rendering="geometricPrecision"><tspan x="525.75" y="513" font-family="Arial" font-weight="bold" font-size="16" fill="rgb(0, 0, 0)">(d) </tspan><tspan font-family="Arial" font-size="16" fill="rgb(0, 0, 0)">I</tspan><tspan font-family="Arial" dy="3.62" font-size="12" fill="rgb(0, 0, 0)">2</tspan><tspan font-family="Arial" dy="-3.62" font-size="16" fill="rgb(0, 0, 0)">, Acetone, DCM, 98% over 2 steps</tspan></text></g><g><text xml:space="preserve" text-anchor="middle" text-rendering="geometricPrecision"><tspan x="199.75" y="557.75" font-family="Arial" font-weight="bold" font-size="16" fill="rgb(0, 0, 0)">Pregnanolone</tspan></text></g><g><text xml:space="preserve" text-anchor="middle" text-rendering="geometricPrecision"><tspan x="1034.13" y="558.13" font-family="Arial" font-weight="bold" font-size="16" fill="rgb(0, 0, 0)">Ganaxolone</tspan></text></g><g><text xml:space="preserve" text-anchor="start" text-rendering="geometricPrecision"><tspan x="1017.41" y="490.93" font-family="Arial" font-size="16" fill="rgb(0, 0, 0)">H</tspan></text></g><g><text xml:space="preserve" text-anchor="start" text-rendering="geometricPrecision"><tspan x="1039.24" y="453.13" font-family="Arial" font-size="16" fill="rgb(0, 0, 0)">H</tspan></text></g><g><text xml:space="preserve" text-anchor="start" text-rendering="geometricPrecision"><tspan x="1061.06" y="490.93" font-family="Arial" font-size="16" fill="rgb(0, 0, 0)">H</tspan></text></g><g id="Solid"><path d="M958.77 497.18 L958.77 497.18 L957.69 497.8 L956.62 497.44 L956.61 471.98 L957.69 472.6 L958.77 473.22 Z" stroke="rgb(0, 0, 0)" stroke-width="0" fill-rule="evenodd" stroke-linejoin="miter" fill="rgb(0, 0, 0)" shape-rendering="geometricPrecision" /></g><g id="Solid"><path d="M958.77 473.22 L958.77 473.22 L957.69 472.6 L956.61 471.98 L979.52 458.76 L979.52 460 L979.52 461.24 Z" stroke="rgb(0, 0, 0)" stroke-width="0" fill-rule="evenodd" stroke-linejoin="miter" fill="rgb(0, 0, 0)" shape-rendering="geometricPrecision" /></g><g id="Solid"><path d="M958.24 499.36 L958.24 499.36 L957.69 497.8 L958.77 497.18 L979.52 509.16 L979.52 510.4 L979.52 511.64 Z" stroke="rgb(0, 0, 0)" stroke-width="0" fill-rule="evenodd" stroke-linejoin="miter" fill="rgb(0, 0, 0)" shape-rendering="geometricPrecision" /></g><g id="Solid"><path d="M979.52 511.64 L979.52 511.64 L979.52 510.4 L979.52 509.16 L1000.27 497.18 L1001.34 497.8 L1001.34 499.04 Z" stroke="rgb(0, 0, 0)" stroke-width="0" fill-rule="evenodd" stroke-linejoin="miter" fill="rgb(0, 0, 0)" shape-rendering="geometricPrecision" /></g><g id="Solid"><path d="M1001.34 499.04 L1001.34 499.04 L1001.34 497.8 L1002.42 497.18 L1023.16 509.16 L1023.16 510.4 L1023.16 511.64 Z" stroke="rgb(0, 0, 0)" stroke-width="0" fill-rule="evenodd" stroke-linejoin="miter" fill="rgb(0, 0, 0)" shape-rendering="geometricPrecision" /></g><g id="Solid"><path d="M1023.16 511.64 L1023.16 511.64 L1023.16 510.4 L1023.16 509.16 L1043.92 497.18 L1044.99 497.8 L1046.06 498.42 Z" stroke="rgb(0, 0, 0)" stroke-width="0" fill-rule="evenodd" stroke-linejoin="miter" fill="rgb(0, 0, 0)" shape-rendering="geometricPrecision" /></g><g id="Solid"><path d="M1046.06 498.42 L1046.06 498.42 L1044.99 497.8 L1043.92 497.18 L1043.92 473.22 L1044.99 472.6 L1046.07 473.22 Z" stroke="rgb(0, 0, 0)" stroke-width="0" fill-rule="evenodd" stroke-linejoin="miter" fill="rgb(0, 0, 0)" shape-rendering="geometricPrecision" /></g><g id="Solid"><path d="M1046.07 473.22 L1046.07 473.22 L1044.99 472.6 L1046.42 470.53 L1065.74 459.38 L1066.81 460 L1066.93 461.17 Z" stroke="rgb(0, 0, 0)" stroke-width="0" fill-rule="evenodd" stroke-linejoin="miter" fill="rgb(0, 0, 0)" shape-rendering="geometricPrecision" /></g><g id="Solid"><path d="M1066.93 461.17 L1066.93 461.17 L1066.81 460 L1067.89 459.22 L1090.37 466.53 L1090.78 467.79 L1091.19 469.05 Z" stroke="rgb(0, 0, 0)" stroke-width="0" fill-rule="evenodd" stroke-linejoin="miter" fill="rgb(0, 0, 0)" shape-rendering="geometricPrecision" /></g><g id="Solid"><path d="M1091.19 469.05 L1091.19 469.05 L1090.78 467.79 L1090.37 466.53 L1104.26 447.4 L1105.59 447.4 L1106.92 447.4 Z" stroke="rgb(0, 0, 0)" stroke-width="0" fill-rule="evenodd" stroke-linejoin="miter" fill="rgb(0, 0, 0)" shape-rendering="geometricPrecision" /></g><g id="Solid"><path d="M1106.92 447.4 L1106.92 447.4 L1105.59 447.4 L1104.26 447.4 L1090.37 428.28 L1090.78 427.02 L1092.01 426.88 Z" stroke="rgb(0, 0, 0)" stroke-width="0" fill-rule="evenodd" stroke-linejoin="miter" fill="rgb(0, 0, 0)" shape-rendering="geometricPrecision" /></g><g id="Solid"><path d="M1089.79 426.21 L1089.79 426.21 L1090.78 427.02 L1090.37 428.28 L1067.89 435.58 L1066.81 434.8 L1068.15 433.23 Z" stroke="rgb(0, 0, 0)" stroke-width="0" fill-rule="evenodd" stroke-linejoin="miter" fill="rgb(0, 0, 0)" shape-rendering="geometricPrecision" /></g><g id="Solid"><path d="M1067.89 459.22 L1067.89 459.22 L1066.81 460 L1065.74 459.38 L1065.74 435.42 L1066.81 434.8 L1067.89 435.58 Z" stroke="rgb(0, 0, 0)" stroke-width="0" fill-rule="evenodd" stroke-linejoin="miter" fill="rgb(0, 0, 0)" shape-rendering="geometricPrecision" /></g><g id="WedgeBegin"><path d="M1068.15 433.23 L1068.15 433.23 L1066.81 434.8 L1065.38 432.73 L1061.41 409.6 L1066.81 409.6 L1072.21 409.6 Z" stroke="rgb(0, 0, 0)" stroke-width="0" fill-rule="evenodd" stroke-linejoin="miter" fill="rgb(0, 0, 0)" shape-rendering="geometricPrecision" /></g><g id="Solid"><path d="M1065.38 432.73 L1065.38 432.73 L1066.81 434.8 L1065.74 435.42 L1044.99 423.44 L1044.99 422.2 L1044.99 420.96 Z" stroke="rgb(0, 0, 0)" stroke-width="0" fill-rule="evenodd" stroke-linejoin="miter" fill="rgb(0, 0, 0)" shape-rendering="geometricPrecision" /></g><g id="Solid"><path d="M1044.99 420.96 L1044.99 420.96 L1044.99 422.2 L1044.99 423.44 L1024.24 435.42 L1023.16 434.8 L1022.08 434.18 Z" stroke="rgb(0, 0, 0)" stroke-width="0" fill-rule="evenodd" stroke-linejoin="miter" fill="rgb(0, 0, 0)" shape-rendering="geometricPrecision" /></g><g id="Solid"><path d="M1022.08 434.18 L1022.08 434.18 L1023.16 434.8 L1024.24 435.42 L1024.24 459.38 L1023.16 460 L1022.09 459.38 Z" stroke="rgb(0, 0, 0)" stroke-width="0" fill-rule="evenodd" stroke-linejoin="miter" fill="rgb(0, 0, 0)" shape-rendering="geometricPrecision" /></g><g id="Solid"><path d="M1043.56 470.53 L1043.56 470.53 L1044.99 472.6 L1043.92 473.22 L1023.16 461.24 L1023.16 460 L1024.24 459.38 Z" stroke="rgb(0, 0, 0)" stroke-width="0" fill-rule="evenodd" stroke-linejoin="miter" fill="rgb(0, 0, 0)" shape-rendering="geometricPrecision" /></g><g id="Solid"><path d="M1022.09 459.38 L1022.09 459.38 L1023.16 460 L1023.16 461.24 L1002.42 473.22 L1001.34 472.6 L1002.77 470.53 Z" stroke="rgb(0, 0, 0)" stroke-width="0" fill-rule="evenodd" stroke-linejoin="miter" fill="rgb(0, 0, 0)" shape-rendering="geometricPrecision" /></g><g id="Solid"><path d="M979.52 461.24 L979.52 461.24 L979.52 460 L979.52 458.76 L999.91 470.53 L1001.34 472.6 L1000.27 473.22 Z" stroke="rgb(0, 0, 0)" stroke-width="0" fill-rule="evenodd" stroke-linejoin="miter" fill="rgb(0, 0, 0)" shape-rendering="geometricPrecision" /></g><g id="Solid"><path d="M1002.42 497.18 L1002.42 497.18 L1001.34 497.8 L1000.27 497.18 L1000.27 473.22 L1001.34 472.6 L1002.42 473.22 Z" stroke="rgb(0, 0, 0)" stroke-width="0" fill-rule="evenodd" stroke-linejoin="miter" fill="rgb(0, 0, 0)" shape-rendering="geometricPrecision" /></g><g id="WedgeBegin"><path d="M1002.77 470.53 L1002.77 470.53 L1001.34 472.6 L999.91 470.53 L995.94 447.4 L1001.34 447.4 L1006.74 447.4 Z" stroke="rgb(0, 0, 0)" stroke-width="0" fill-rule="evenodd" stroke-linejoin="miter" fill="rgb(0, 0, 0)" shape-rendering="geometricPrecision" /></g><g id="Wedged Hash Begin Bond"><path d="M1022.08 460 L1022.08 460 L1024.24 460 L1024.77 462.15 L1021.55 462.15 Z" stroke="rgb(0, 0, 0)" stroke-width="0" fill-rule="evenodd" stroke-linejoin="miter" fill="rgb(0, 0, 0)" shape-rendering="geometricPrecision" /><path d="M1021.33 463.07 L1021.33 463.07 L1024.99 463.07 L1025.53 465.22 L1020.79 465.22 Z" stroke="rgb(0, 0, 0)" stroke-width="0" fill-rule="evenodd" stroke-linejoin="miter" fill="rgb(0, 0, 0)" shape-rendering="geometricPrecision" /><path d="M1020.57 466.14 L1020.57 466.14 L1025.75 466.14 L1026.28 468.29 L1020.04 468.29 Z" stroke="rgb(0, 0, 0)" stroke-width="0" fill-rule="evenodd" stroke-linejoin="miter" fill="rgb(0, 0, 0)" shape-rendering="geometricPrecision" /><path d="M1019.81 469.21 L1019.81 469.21 L1026.51 469.21 L1027.04 471.36 L1019.28 471.36 Z" stroke="rgb(0, 0, 0)" stroke-width="0" fill-rule="evenodd" stroke-linejoin="miter" fill="rgb(0, 0, 0)" shape-rendering="geometricPrecision" /><path d="M1019.05 472.28 L1019.05 472.28 L1027.27 472.28 L1027.8 474.43 L1018.52 474.43 Z" stroke="rgb(0, 0, 0)" stroke-width="0" fill-rule="evenodd" stroke-linejoin="miter" fill="rgb(0, 0, 0)" shape-rendering="geometricPrecision" /><path d="M1018.29 475.35 L1018.29 475.35 L1028.03 475.35 L1028.56 477.5 L1017.76 477.5 Z" stroke="rgb(0, 0, 0)" stroke-width="0" fill-rule="evenodd" stroke-linejoin="miter" fill="rgb(0, 0, 0)" shape-rendering="geometricPrecision" /></g><g id="WedgeBegin"><path d="M1046.42 470.53 L1046.42 470.53 L1044.99 472.6 L1043.56 470.53 L1039.59 455.2 L1044.99 455.2 L1050.39 455.2 Z" stroke="rgb(0, 0, 0)" stroke-width="0" fill-rule="evenodd" stroke-linejoin="miter" fill="rgb(0, 0, 0)" shape-rendering="geometricPrecision" /></g><g id="Wedged Hash Begin Bond"><path d="M1065.74 460 L1065.74 460 L1067.88 460 L1068.42 462.15 L1065.2 462.15 Z" stroke="rgb(0, 0, 0)" stroke-width="0" fill-rule="evenodd" stroke-linejoin="miter" fill="rgb(0, 0, 0)" shape-rendering="geometricPrecision" /><path d="M1064.98 463.07 L1064.98 463.07 L1068.64 463.07 L1069.18 465.22 L1064.44 465.22 Z" stroke="rgb(0, 0, 0)" stroke-width="0" fill-rule="evenodd" stroke-linejoin="miter" fill="rgb(0, 0, 0)" shape-rendering="geometricPrecision" /><path d="M1064.22 466.14 L1064.22 466.14 L1069.4 466.14 L1069.93 468.29 L1063.69 468.29 Z" stroke="rgb(0, 0, 0)" stroke-width="0" fill-rule="evenodd" stroke-linejoin="miter" fill="rgb(0, 0, 0)" shape-rendering="geometricPrecision" /><path d="M1063.46 469.21 L1063.46 469.21 L1070.16 469.21 L1070.69 471.36 L1062.93 471.36 Z" stroke="rgb(0, 0, 0)" stroke-width="0" fill-rule="evenodd" stroke-linejoin="miter" fill="rgb(0, 0, 0)" shape-rendering="geometricPrecision" /><path d="M1062.7 472.28 L1062.7 472.28 L1070.92 472.28 L1071.45 474.43 L1062.17 474.43 Z" stroke="rgb(0, 0, 0)" stroke-width="0" fill-rule="evenodd" stroke-linejoin="miter" fill="rgb(0, 0, 0)" shape-rendering="geometricPrecision" /><path d="M1061.94 475.35 L1061.94 475.35 L1071.68 475.35 L1072.21 477.5 L1061.41 477.5 Z" stroke="rgb(0, 0, 0)" stroke-width="0" fill-rule="evenodd" stroke-linejoin="miter" fill="rgb(0, 0, 0)" shape-rendering="geometricPrecision" /></g><g id="WedgeBegin"><path d="M1092.01 426.88 L1092.01 426.88 L1090.78 427.02 L1089.79 426.21 L1091.93 403 L1097.3 402.67 L1103.4 402.15 Z" stroke="rgb(0, 0, 0)" stroke-width="0" fill-rule="evenodd" stroke-linejoin="miter" fill="rgb(0, 0, 0)" shape-rendering="geometricPrecision" /></g><g><text xml:space="preserve" text-anchor="start" text-rendering="geometricPrecision"><tspan x="1073.23" y="390.68" font-family="Arial" font-size="16" fill="rgb(255, 0, 0)">O</tspan></text></g><g id="Solid"><line x1="1095.4" y1="404.57" x2="1084.51" y2="393.69" stroke="rgb(0, 0, 0)" stroke-width="2.15" shape-rendering="auto" /><path d="M1098.22 401.31 L1098.22 401.31 L1100.62 400.67 L1089.07 389.13 L1087.55 390.65 Z" stroke="rgb(0, 0, 0)" stroke-width="0" fill-rule="evenodd" stroke-linejoin="miter" fill="rgb(0, 0, 0)" shape-rendering="geometricPrecision" /><path d="M1094.82 405.51 L1094.82 405.51 L1095.78 403.43 L1085.27 392.93 L1083.75 394.45 Z" stroke="rgb(0, 0, 0)" stroke-width="0" fill-rule="evenodd" stroke-linejoin="miter" fill="rgb(0, 0, 0)" shape-rendering="geometricPrecision" /></g><g id="Solid"><path d="M1103.4 402.15 L1103.4 402.15 L1097.3 402.67 L1091.93 403 L1121.36 395.11 L1121.64 396.15 L1121.92 397.19 Z" stroke="rgb(0, 0, 0)" stroke-width="0" fill-rule="evenodd" stroke-linejoin="miter" fill="rgb(0, 0, 0)" shape-rendering="geometricPrecision" /></g><g><text xml:space="preserve" text-anchor="end" text-rendering="geometricPrecision"><tspan x="938.74" y="503.63" font-family="Arial" font-size="16" fill="rgb(0, 0, 0)">H</tspan><tspan font-family="Arial" font-size="16" fill="rgb(255, 0, 0)">O</tspan></text></g><g id="Wedged Hash Begin Bond"><path d="M957.69 496.73 L957.69 496.73 L957.69 498.88 L955.54 499.4 L955.54 496.2 Z" stroke="rgb(0, 0, 0)" stroke-width="0" fill-rule="evenodd" stroke-linejoin="miter" fill="rgb(0, 0, 0)" shape-rendering="geometricPrecision" /><path d="M954.6 495.97 L954.6 495.97 L954.6 499.63 L952.45 500.16 L952.45 495.44 Z" stroke="rgb(0, 0, 0)" stroke-width="0" fill-rule="evenodd" stroke-linejoin="miter" fill="rgb(0, 0, 0)" shape-rendering="geometricPrecision" /><path d="M951.51 495.21 L951.51 495.21 L951.51 500.39 L949.36 500.92 L949.36 494.68 Z" stroke="rgb(0, 0, 0)" stroke-width="0" fill-rule="evenodd" stroke-linejoin="miter" fill="rgb(0, 0, 0)" shape-rendering="geometricPrecision" /><path d="M948.43 494.45 L948.43 494.45 L948.43 501.15 L946.28 501.68 L946.28 493.92 Z" stroke="rgb(0, 0, 0)" stroke-width="0" fill-rule="evenodd" stroke-linejoin="miter" fill="rgb(0, 0, 0)" shape-rendering="geometricPrecision" /><path d="M945.34 493.69 L945.34 493.69 L945.34 501.91 L943.19 502.44 L943.19 493.16 Z" stroke="rgb(0, 0, 0)" stroke-width="0" fill-rule="evenodd" stroke-linejoin="miter" fill="rgb(0, 0, 0)" shape-rendering="geometricPrecision" /><path d="M942.25 492.93 L942.25 492.93 L942.25 502.67 L940.1 503.2 L940.1 492.4 Z" stroke="rgb(0, 0, 0)" stroke-width="0" fill-rule="evenodd" stroke-linejoin="miter" fill="rgb(0, 0, 0)" shape-rendering="geometricPrecision" /></g><g id="WedgeBegin"><path d="M956.62 497.44 L956.62 497.44 L957.69 497.8 L958.24 499.36 L949.77 522.33 L945.09 519.63 L940.41 516.93 Z" stroke="rgb(0, 0, 0)" stroke-width="0" fill-rule="evenodd" stroke-linejoin="miter" fill="rgb(0, 0, 0)" shape-rendering="geometricPrecision" /></g><g><text xml:space="preserve" text-anchor="start" text-rendering="geometricPrecision"><tspan x="995.59" y="528.73" font-family="Arial" font-size="16" fill="rgb(0, 0, 0)">H</tspan></text></g><g id="Wedged Hash Begin Bond"><path d="M1000.26 497.8 L1000.26 497.8 L1002.42 497.8 L1002.95 499.95 L999.73 499.95 Z" stroke="rgb(0, 0, 0)" stroke-width="0" fill-rule="evenodd" stroke-linejoin="miter" fill="rgb(0, 0, 0)" shape-rendering="geometricPrecision" /><path d="M999.51 500.87 L999.51 500.87 L1003.17 500.87 L1003.71 503.02 L998.97 503.02 Z" stroke="rgb(0, 0, 0)" stroke-width="0" fill-rule="evenodd" stroke-linejoin="miter" fill="rgb(0, 0, 0)" shape-rendering="geometricPrecision" /><path d="M998.75 503.94 L998.75 503.94 L1003.93 503.94 L1004.46 506.09 L998.22 506.09 Z" stroke="rgb(0, 0, 0)" stroke-width="0" fill-rule="evenodd" stroke-linejoin="miter" fill="rgb(0, 0, 0)" shape-rendering="geometricPrecision" /><path d="M997.99 507.01 L997.99 507.01 L1004.69 507.01 L1005.22 509.16 L997.46 509.16 Z" stroke="rgb(0, 0, 0)" stroke-width="0" fill-rule="evenodd" stroke-linejoin="miter" fill="rgb(0, 0, 0)" shape-rendering="geometricPrecision" /><path d="M997.23 510.08 L997.23 510.08 L1005.45 510.08 L1005.98 512.23 L996.7 512.23 Z" stroke="rgb(0, 0, 0)" stroke-width="0" fill-rule="evenodd" stroke-linejoin="miter" fill="rgb(0, 0, 0)" shape-rendering="geometricPrecision" /><path d="M996.47 513.15 L996.47 513.15 L1006.21 513.15 L1006.74 515.3 L995.94 515.3 Z" stroke="rgb(0, 0, 0)" stroke-width="0" fill-rule="evenodd" stroke-linejoin="miter" fill="rgb(0, 0, 0)" shape-rendering="geometricPrecision" /></g><g><text xml:space="preserve" text-anchor="start" text-rendering="geometricPrecision"><tspan x="191.62" y="487.93" font-family="Arial" font-size="16" fill="rgb(0, 0, 0)">H</tspan></text></g><g><text xml:space="preserve" text-anchor="start" text-rendering="geometricPrecision"><tspan x="213.45" y="450.13" font-family="Arial" font-size="16" fill="rgb(0, 0, 0)">H</tspan></text></g><g id="Solid"><path d="M132.98 494.18 L132.98 494.18 L131.9 494.8 L130.83 494.28 L130.82 468.98 L131.9 469.6 L132.98 470.22 Z" stroke="rgb(0, 0, 0)" stroke-width="0" fill-rule="evenodd" stroke-linejoin="miter" fill="rgb(0, 0, 0)" shape-rendering="geometricPrecision" /></g><g><text xml:space="preserve" text-anchor="start" text-rendering="geometricPrecision"><tspan x="235.27" y="487.93" font-family="Arial" font-size="16" fill="rgb(0, 0, 0)">H</tspan></text></g><g id="Solid"><path d="M132.98 470.22 L132.98 470.22 L131.9 469.6 L130.82 468.98 L153.72 455.76 L153.72 457 L153.72 458.24 Z" stroke="rgb(0, 0, 0)" stroke-width="0" fill-rule="evenodd" stroke-linejoin="miter" fill="rgb(0, 0, 0)" shape-rendering="geometricPrecision" /></g><g id="Solid"><path d="M132.18 496.2 L132.18 496.2 L131.9 494.8 L132.98 494.18 L153.72 506.16 L153.72 507.4 L153.72 508.64 Z" stroke="rgb(0, 0, 0)" stroke-width="0" fill-rule="evenodd" stroke-linejoin="miter" fill="rgb(0, 0, 0)" shape-rendering="geometricPrecision" /></g><g id="Solid"><path d="M153.72 508.64 L153.72 508.64 L153.72 507.4 L153.72 506.16 L174.48 494.18 L175.55 494.8 L175.55 496.04 Z" stroke="rgb(0, 0, 0)" stroke-width="0" fill-rule="evenodd" stroke-linejoin="miter" fill="rgb(0, 0, 0)" shape-rendering="geometricPrecision" /></g><g id="Solid"><path d="M175.55 496.04 L175.55 496.04 L175.55 494.8 L176.63 494.18 L197.37 506.16 L197.37 507.4 L197.37 508.64 Z" stroke="rgb(0, 0, 0)" stroke-width="0" fill-rule="evenodd" stroke-linejoin="miter" fill="rgb(0, 0, 0)" shape-rendering="geometricPrecision" /></g><g id="Solid"><path d="M197.37 508.64 L197.37 508.64 L197.37 507.4 L197.37 506.16 L218.13 494.18 L219.2 494.8 L220.27 495.42 Z" stroke="rgb(0, 0, 0)" stroke-width="0" fill-rule="evenodd" stroke-linejoin="miter" fill="rgb(0, 0, 0)" shape-rendering="geometricPrecision" /></g><g id="Solid"><path d="M220.27 495.42 L220.27 495.42 L219.2 494.8 L218.13 494.18 L218.13 470.22 L219.2 469.6 L220.28 470.22 Z" stroke="rgb(0, 0, 0)" stroke-width="0" fill-rule="evenodd" stroke-linejoin="miter" fill="rgb(0, 0, 0)" shape-rendering="geometricPrecision" /></g><g id="Solid"><path d="M220.28 470.22 L220.28 470.22 L219.2 469.6 L220.63 467.53 L239.95 456.38 L241.02 457 L241.14 458.17 Z" stroke="rgb(0, 0, 0)" stroke-width="0" fill-rule="evenodd" stroke-linejoin="miter" fill="rgb(0, 0, 0)" shape-rendering="geometricPrecision" /></g><g id="Solid"><path d="M241.14 458.17 L241.14 458.17 L241.02 457 L242.1 456.22 L264.58 463.53 L264.99 464.79 L265.4 466.05 Z" stroke="rgb(0, 0, 0)" stroke-width="0" fill-rule="evenodd" stroke-linejoin="miter" fill="rgb(0, 0, 0)" shape-rendering="geometricPrecision" /></g><g id="Solid"><path d="M265.4 466.05 L265.4 466.05 L264.99 464.79 L264.58 463.53 L278.47 444.4 L279.8 444.4 L281.13 444.4 Z" stroke="rgb(0, 0, 0)" stroke-width="0" fill-rule="evenodd" stroke-linejoin="miter" fill="rgb(0, 0, 0)" shape-rendering="geometricPrecision" /></g><g id="Solid"><path d="M281.13 444.4 L281.13 444.4 L279.8 444.4 L278.47 444.4 L264.58 425.28 L264.99 424.02 L266.22 423.88 Z" stroke="rgb(0, 0, 0)" stroke-width="0" fill-rule="evenodd" stroke-linejoin="miter" fill="rgb(0, 0, 0)" shape-rendering="geometricPrecision" /></g><g id="Solid"><path d="M264 423.21 L264 423.21 L264.99 424.02 L264.58 425.28 L242.1 432.58 L241.02 431.8 L242.36 430.23 Z" stroke="rgb(0, 0, 0)" stroke-width="0" fill-rule="evenodd" stroke-linejoin="miter" fill="rgb(0, 0, 0)" shape-rendering="geometricPrecision" /></g><g id="Solid"><path d="M242.1 456.22 L242.1 456.22 L241.02 457 L239.95 456.38 L239.95 432.42 L241.02 431.8 L242.1 432.58 Z" stroke="rgb(0, 0, 0)" stroke-width="0" fill-rule="evenodd" stroke-linejoin="miter" fill="rgb(0, 0, 0)" shape-rendering="geometricPrecision" /></g><g id="WedgeBegin"><path d="M242.36 430.23 L242.36 430.23 L241.02 431.8 L239.59 429.73 L235.62 406.6 L241.02 406.6 L246.42 406.6 Z" stroke="rgb(0, 0, 0)" stroke-width="0" fill-rule="evenodd" stroke-linejoin="miter" fill="rgb(0, 0, 0)" shape-rendering="geometricPrecision" /></g><g id="Solid"><path d="M239.59 429.73 L239.59 429.73 L241.02 431.8 L239.95 432.42 L219.2 420.44 L219.2 419.2 L219.2 417.96 Z" stroke="rgb(0, 0, 0)" stroke-width="0" fill-rule="evenodd" stroke-linejoin="miter" fill="rgb(0, 0, 0)" shape-rendering="geometricPrecision" /></g><g id="Solid"><path d="M219.2 417.96 L219.2 417.96 L219.2 419.2 L219.2 420.44 L198.45 432.42 L197.37 431.8 L196.29 431.18 Z" stroke="rgb(0, 0, 0)" stroke-width="0" fill-rule="evenodd" stroke-linejoin="miter" fill="rgb(0, 0, 0)" shape-rendering="geometricPrecision" /></g><g id="Solid"><path d="M196.29 431.18 L196.29 431.18 L197.37 431.8 L198.45 432.42 L198.45 456.38 L197.37 457 L196.3 456.38 Z" stroke="rgb(0, 0, 0)" stroke-width="0" fill-rule="evenodd" stroke-linejoin="miter" fill="rgb(0, 0, 0)" shape-rendering="geometricPrecision" /></g><g id="Solid"><path d="M217.77 467.53 L217.77 467.53 L219.2 469.6 L218.13 470.22 L197.37 458.24 L197.37 457 L198.45 456.38 Z" stroke="rgb(0, 0, 0)" stroke-width="0" fill-rule="evenodd" stroke-linejoin="miter" fill="rgb(0, 0, 0)" shape-rendering="geometricPrecision" /></g><g id="Solid"><path d="M196.3 456.38 L196.3 456.38 L197.37 457 L197.37 458.24 L176.63 470.22 L175.55 469.6 L176.98 467.53 Z" stroke="rgb(0, 0, 0)" stroke-width="0" fill-rule="evenodd" stroke-linejoin="miter" fill="rgb(0, 0, 0)" shape-rendering="geometricPrecision" /></g><g id="Solid"><path d="M153.72 458.24 L153.72 458.24 L153.72 457 L153.72 455.76 L174.12 467.53 L175.55 469.6 L174.48 470.22 Z" stroke="rgb(0, 0, 0)" stroke-width="0" fill-rule="evenodd" stroke-linejoin="miter" fill="rgb(0, 0, 0)" shape-rendering="geometricPrecision" /></g><g id="Solid"><path d="M176.63 494.18 L176.63 494.18 L175.55 494.8 L174.48 494.18 L174.48 470.22 L175.55 469.6 L176.63 470.22 Z" stroke="rgb(0, 0, 0)" stroke-width="0" fill-rule="evenodd" stroke-linejoin="miter" fill="rgb(0, 0, 0)" shape-rendering="geometricPrecision" /></g><g id="WedgeBegin"><path d="M176.98 467.53 L176.98 467.53 L175.55 469.6 L174.12 467.53 L170.15 444.4 L175.55 444.4 L180.95 444.4 Z" stroke="rgb(0, 0, 0)" stroke-width="0" fill-rule="evenodd" stroke-linejoin="miter" fill="rgb(0, 0, 0)" shape-rendering="geometricPrecision" /></g><g id="Wedged Hash Begin Bond"><path d="M196.3 457 L196.3 457 L198.44 457 L198.98 459.15 L195.76 459.15 Z" stroke="rgb(0, 0, 0)" stroke-width="0" fill-rule="evenodd" stroke-linejoin="miter" fill="rgb(0, 0, 0)" shape-rendering="geometricPrecision" /><path d="M195.54 460.07 L195.54 460.07 L199.2 460.07 L199.74 462.22 L195 462.22 Z" stroke="rgb(0, 0, 0)" stroke-width="0" fill-rule="evenodd" stroke-linejoin="miter" fill="rgb(0, 0, 0)" shape-rendering="geometricPrecision" /><path d="M194.78 463.14 L194.78 463.14 L199.96 463.14 L200.49 465.29 L194.25 465.29 Z" stroke="rgb(0, 0, 0)" stroke-width="0" fill-rule="evenodd" stroke-linejoin="miter" fill="rgb(0, 0, 0)" shape-rendering="geometricPrecision" /><path d="M194.02 466.21 L194.02 466.21 L200.72 466.21 L201.25 468.36 L193.49 468.36 Z" stroke="rgb(0, 0, 0)" stroke-width="0" fill-rule="evenodd" stroke-linejoin="miter" fill="rgb(0, 0, 0)" shape-rendering="geometricPrecision" /><path d="M193.26 469.28 L193.26 469.28 L201.48 469.28 L202.01 471.43 L192.73 471.43 Z" stroke="rgb(0, 0, 0)" stroke-width="0" fill-rule="evenodd" stroke-linejoin="miter" fill="rgb(0, 0, 0)" shape-rendering="geometricPrecision" /><path d="M192.5 472.35 L192.5 472.35 L202.24 472.35 L202.77 474.5 L191.97 474.5 Z" stroke="rgb(0, 0, 0)" stroke-width="0" fill-rule="evenodd" stroke-linejoin="miter" fill="rgb(0, 0, 0)" shape-rendering="geometricPrecision" /></g><g id="WedgeBegin"><path d="M220.63 467.53 L220.63 467.53 L219.2 469.6 L217.77 467.53 L213.8 452.2 L219.2 452.2 L224.6 452.2 Z" stroke="rgb(0, 0, 0)" stroke-width="0" fill-rule="evenodd" stroke-linejoin="miter" fill="rgb(0, 0, 0)" shape-rendering="geometricPrecision" /></g><g id="Wedged Hash Begin Bond"><path d="M239.94 457 L239.94 457 L242.1 457 L242.63 459.15 L239.41 459.15 Z" stroke="rgb(0, 0, 0)" stroke-width="0" fill-rule="evenodd" stroke-linejoin="miter" fill="rgb(0, 0, 0)" shape-rendering="geometricPrecision" /><path d="M239.19 460.07 L239.19 460.07 L242.85 460.07 L243.39 462.22 L238.65 462.22 Z" stroke="rgb(0, 0, 0)" stroke-width="0" fill-rule="evenodd" stroke-linejoin="miter" fill="rgb(0, 0, 0)" shape-rendering="geometricPrecision" /><path d="M238.43 463.14 L238.43 463.14 L243.61 463.14 L244.14 465.29 L237.9 465.29 Z" stroke="rgb(0, 0, 0)" stroke-width="0" fill-rule="evenodd" stroke-linejoin="miter" fill="rgb(0, 0, 0)" shape-rendering="geometricPrecision" /><path d="M237.67 466.21 L237.67 466.21 L244.37 466.21 L244.9 468.36 L237.14 468.36 Z" stroke="rgb(0, 0, 0)" stroke-width="0" fill-rule="evenodd" stroke-linejoin="miter" fill="rgb(0, 0, 0)" shape-rendering="geometricPrecision" /><path d="M236.91 469.28 L236.91 469.28 L245.13 469.28 L245.66 471.43 L236.38 471.43 Z" stroke="rgb(0, 0, 0)" stroke-width="0" fill-rule="evenodd" stroke-linejoin="miter" fill="rgb(0, 0, 0)" shape-rendering="geometricPrecision" /><path d="M236.15 472.35 L236.15 472.35 L245.89 472.35 L246.42 474.5 L235.62 474.5 Z" stroke="rgb(0, 0, 0)" stroke-width="0" fill-rule="evenodd" stroke-linejoin="miter" fill="rgb(0, 0, 0)" shape-rendering="geometricPrecision" /></g><g id="WedgeBegin"><path d="M266.22 423.88 L266.22 423.88 L264.99 424.02 L264 423.21 L266.14 400 L271.51 399.67 L277.61 399.15 Z" stroke="rgb(0, 0, 0)" stroke-width="0" fill-rule="evenodd" stroke-linejoin="miter" fill="rgb(0, 0, 0)" shape-rendering="geometricPrecision" /></g><g id="Solid"><line x1="269.61" y1="401.57" x2="258.71" y2="390.68" stroke="rgb(0, 0, 0)" stroke-width="2.15" shape-rendering="auto" /><path d="M272.43 398.31 L272.43 398.31 L274.83 397.67 L263.27 386.12 L261.75 387.64 Z" stroke="rgb(0, 0, 0)" stroke-width="0" fill-rule="evenodd" stroke-linejoin="miter" fill="rgb(0, 0, 0)" shape-rendering="geometricPrecision" /><path d="M269.03 402.51 L269.03 402.51 L269.99 400.43 L259.47 389.92 L257.95 391.44 Z" stroke="rgb(0, 0, 0)" stroke-width="0" fill-rule="evenodd" stroke-linejoin="miter" fill="rgb(0, 0, 0)" shape-rendering="geometricPrecision" /></g><g><text xml:space="preserve" text-anchor="start" text-rendering="geometricPrecision"><tspan x="247.44" y="387.68" font-family="Arial" font-size="16" fill="rgb(255, 0, 0)">O</tspan></text></g><g id="Solid"><path d="M277.61 399.15 L277.61 399.15 L271.51 399.67 L266.14 400 L295.57 392.11 L295.85 393.15 L296.13 394.19 Z" stroke="rgb(0, 0, 0)" stroke-width="0" fill-rule="evenodd" stroke-linejoin="miter" fill="rgb(0, 0, 0)" shape-rendering="geometricPrecision" /></g><g id="WedgeBegin"><path d="M130.83 494.28 L130.83 494.28 L131.9 494.8 L132.18 496.2 L121.53 512.81 L117.71 508.99 L113.89 505.18 Z" stroke="rgb(0, 0, 0)" stroke-width="0" fill-rule="evenodd" stroke-linejoin="miter" fill="rgb(0, 0, 0)" shape-rendering="geometricPrecision" /></g><g><text xml:space="preserve" text-anchor="end" text-rendering="geometricPrecision"><tspan x="116.94" y="521.84" font-family="Arial" font-size="16" fill="rgb(0, 0, 0)">H</tspan><tspan font-family="Arial" font-size="16" fill="rgb(255, 0, 0)">O</tspan></text></g><g id="Wedged Hash Begin Bond"><path d="M174.48 494.8 L174.48 494.8 L176.62 494.8 L177.16 496.95 L173.94 496.95 Z" stroke="rgb(0, 0, 0)" stroke-width="0" fill-rule="evenodd" stroke-linejoin="miter" fill="rgb(0, 0, 0)" shape-rendering="geometricPrecision" /><path d="M173.72 497.87 L173.72 497.87 L177.38 497.87 L177.92 500.02 L173.18 500.02 Z" stroke="rgb(0, 0, 0)" stroke-width="0" fill-rule="evenodd" stroke-linejoin="miter" fill="rgb(0, 0, 0)" shape-rendering="geometricPrecision" /><path d="M172.96 500.94 L172.96 500.94 L178.14 500.94 L178.67 503.09 L172.43 503.09 Z" stroke="rgb(0, 0, 0)" stroke-width="0" fill-rule="evenodd" stroke-linejoin="miter" fill="rgb(0, 0, 0)" shape-rendering="geometricPrecision" /><path d="M172.2 504.01 L172.2 504.01 L178.9 504.01 L179.43 506.16 L171.67 506.16 Z" stroke="rgb(0, 0, 0)" stroke-width="0" fill-rule="evenodd" stroke-linejoin="miter" fill="rgb(0, 0, 0)" shape-rendering="geometricPrecision" /><path d="M171.44 507.08 L171.44 507.08 L179.66 507.08 L180.19 509.23 L170.91 509.23 Z" stroke="rgb(0, 0, 0)" stroke-width="0" fill-rule="evenodd" stroke-linejoin="miter" fill="rgb(0, 0, 0)" shape-rendering="geometricPrecision" /><path d="M170.68 510.15 L170.68 510.15 L180.42 510.15 L180.95 512.3 L170.15 512.3 Z" stroke="rgb(0, 0, 0)" stroke-width="0" fill-rule="evenodd" stroke-linejoin="miter" fill="rgb(0, 0, 0)" shape-rendering="geometricPrecision" /></g><g><text xml:space="preserve" text-anchor="start" text-rendering="geometricPrecision"><tspan x="169.8" y="525.73" font-family="Arial" font-size="16" fill="rgb(0, 0, 0)">H</tspan></text></g></g></g></svg>